<svg xmlns="http://www.w3.org/2000/svg" viewBox="0 17.149999618530273 42.75 36.599998474121094"
  data-asc="1.075" width="42.75" height="36.599998474121094">
  <defs />
  <g fill="#ffffff">
    <g transform="translate(0, 0)">
      <path
        d="M0 45.65L0 25.25Q0 21.35 2.40 19.25Q4.85 17.15 8.60 17.15L16.80 17.15Q21.10 17.15 23.10 19.45Q25.15 21.70 25.15 25.25L25.15 45.65Q25.15 53.75 16.80 53.75L8.60 53.75Q4.85 53.75 2.40 51.80Q0 49.85 0 45.65M3.70 45.65Q3.70 47.95 5.10 49Q6.55 50.05 8.60 50.05L16.80 50.05Q21.45 50.05 21.45 45.65L21.45 25.25Q21.45 20.85 16.80 20.85L8.60 20.85Q6.10 20.85 4.90 22.05Q3.70 23.30 3.70 25.25L3.70 45.65ZM42.75 17.15L42.75 53.75L39.05 53.75L39.05 21.35L30.65 24.05L30.65 21.40L39.05 17.15L42.75 17.15Z" />
    </g>
  </g>
</svg>